<?xml version="1.0" encoding="iso-8859-1"?>
<!-- Generator: Adobe Illustrator 19.0.0, SVG Export Plug-In . SVG Version: 6.00 Build 0)  -->
<svg xmlns="http://www.w3.org/2000/svg" xmlns:xlink="http://www.w3.org/1999/xlink" version="1.1" id="Capa_1" x="0px" y="0px" viewBox="0 0 512 512" style="enable-background:new 0 0 512 512;" xml:space="preserve" width="512px" height="512px">
<g>
	<g>
		<path d="M437,0H75C33.645,0,0,33.645,0,75v362c0,41.355,33.645,75,75,75h362c41.355,0,75-33.645,75-75V75    C512,33.645,478.355,0,437,0z M301,315v167h-30V315c0-8.284-6.716-15-15-15h-45v-30h45c8.284,0,15-6.716,15-15v-60    c0-41.355,33.645-75,75-75h45v30h-45c-24.813,0-45,20.187-45,45v60c0,8.284,6.716,15,15,15h70.788l-7.5,30H316    C307.716,300,301,306.716,301,315z M482,437c0,24.813-20.187,45-45,45H331V330h60c6.883,0,12.883-4.685,14.552-11.362l15-60    C422.92,249.17,415.741,240,406,240h-75v-45c0-8.271,6.729-15,15-15h60c8.284,0,15-6.716,15-15v-60c0-8.284-6.716-15-15-15h-60    c-57.897,0-105,47.103-105,105v45h-45c-8.284,0-15,6.716-15,15v60c0,8.284,6.716,14.9,15,14.9h45V482H75    c-24.813,0-45-20.187-45-45V75c0-24.813,20.187-45,45-45h362c24.813,0,45,20.187,45,45V437z" fill="#FFFFFF"/>
	</g>
</g>
<g>
</g>
<g>
</g>
<g>
</g>
<g>
</g>
<g>
</g>
<g>
</g>
<g>
</g>
<g>
</g>
<g>
</g>
<g>
</g>
<g>
</g>
<g>
</g>
<g>
</g>
<g>
</g>
<g>
</g>
</svg>
