<?xml version="1.0" encoding="iso-8859-1"?>
<!-- Generator: Adobe Illustrator 19.0.0, SVG Export Plug-In . SVG Version: 6.00 Build 0)  -->
<svg xmlns="http://www.w3.org/2000/svg" xmlns:xlink="http://www.w3.org/1999/xlink" version="1.1" id="Capa_1" x="0px" y="0px" viewBox="0 0 382.667 382.667" style="enable-background:new 0 0 382.667 382.667;" xml:space="preserve" width="512px" height="512px">
<g>
	<g>
		<path d="M375.878,0.101c-0.804-0.123-1.621-0.123-2.425,0c-74.253,14.777-142.571,50.924-196.56,104l-70.56,3.6    c-1.987,0.09-3.87,0.917-5.28,2.32l-72.48,72.48c-3.137,3.111-3.158,8.177-0.047,11.314c1.514,1.526,3.577,2.379,5.727,2.366h0.56    l81.68-5.6c-3.2,6.72-6.24,13.6-9.04,20.8c-1.161,2.95-0.471,6.307,1.76,8.56l53.76,53.76c2.253,2.231,5.61,2.921,8.56,1.76    c7.44-2.88,14.48-6.08,21.44-9.36l-5.6,82.56c-0.254,4.411,3.116,8.193,7.527,8.447c2.256,0.13,4.463-0.701,6.073-2.287    l72.48-72.48c1.403-1.41,2.23-3.293,2.32-5.28l3.68-72c52.628-53.906,88.455-121.945,103.12-195.84    C383.243,4.854,380.245,0.771,375.878,0.101z M55.053,178.421l55.2-55.2l51.28-2.64c-13.976,16.377-26.228,34.151-36.56,53.04    L55.053,178.421z M260.013,272.981l-55.2,55.2l4.8-70.88c18.896-10.382,36.671-22.687,53.04-36.72L260.013,272.981z     M170.573,258.421l-46.32-46.32c58.32-142.48,199.12-184.48,240-193.84C355.053,59.301,313.293,200.021,170.573,258.421z" fill="#FFFFFF"/>
	</g>
</g>
<g>
	<g>
		<path d="M88.413,223.221c-3.115-3.159-8.201-3.195-11.36-0.08l-74.24,73.92c-3.364,2.865-3.768,7.914-0.904,11.278    c1.614,1.895,4.018,2.931,6.504,2.802c2.126,0.012,4.17-0.823,5.68-2.32l74.24-74.24C91.492,231.467,91.528,226.38,88.413,223.221    z" fill="#FFFFFF"/>
	</g>
</g>
<g>
	<g>
		<path d="M90.225,292.557c-0.017-0.018-0.034-0.037-0.052-0.055c-3.12-3.102-8.16-3.102-11.28,0l-74.32,74.64    c-3.802,2.251-5.058,7.158-2.807,10.96c2.251,3.802,7.158,5.058,10.96,2.807c1.157-0.685,2.122-1.65,2.807-2.807l74.24-74.24    C93.02,300.864,93.222,295.803,90.225,292.557z" fill="#FFFFFF"/>
	</g>
</g>
<g>
	<g>
		<path d="M158.661,294.341c-2.995-2.565-7.412-2.565-10.407,0h0.24l-74.24,74.24c-3.356,2.874-3.747,7.924-0.873,11.28    c2.874,3.356,7.924,3.747,11.28,0.873c0.313-0.268,0.605-0.56,0.873-0.873l74-74.24    C162.407,302.266,162.016,297.215,158.661,294.341z" fill="#FFFFFF"/>
	</g>
</g>
<g>
	<g>
		<path d="M277.599,69.461c-19.617,0.004-35.517,15.91-35.513,35.527c0.002,9.42,3.745,18.453,10.407,25.113    c6.648,6.683,15.693,10.428,25.12,10.4c19.617-0.004,35.517-15.91,35.513-35.527C313.122,85.357,297.216,69.457,277.599,69.461z     M291.453,119.141c-7.767,7.571-20.153,7.571-27.92,0c-7.619-7.622-7.619-19.978,0-27.6v-0.32c7.71-7.71,20.21-7.71,27.92,0    C299.163,98.931,299.163,111.431,291.453,119.141z" fill="#FFFFFF"/>
	</g>
</g>
<g>
</g>
<g>
</g>
<g>
</g>
<g>
</g>
<g>
</g>
<g>
</g>
<g>
</g>
<g>
</g>
<g>
</g>
<g>
</g>
<g>
</g>
<g>
</g>
<g>
</g>
<g>
</g>
<g>
</g>
</svg>
